<svg xmlns="http://www.w3.org/2000/svg" viewBox="1580.381 324.881 15.238 15.238">
  <defs>
    <style>
      .cls-1 {
        fill: #cb9e6e;
      }
    </style>
  </defs>
  <path id="Path_82" data-name="Path 82" class="cls-1" d="M4.476,6.19,3.429,7.238l3.429,3.429,7.619-7.619L13.429,2,6.857,8.571Zm9.238,1.429a6.138,6.138,0,0,1-6.1,6.1,6.138,6.138,0,0,1-6.1-6.1,6.138,6.138,0,0,1,6.1-6.1,10.494,10.494,0,0,1,1.714.19L10.476.571A7.288,7.288,0,0,0,7.619,0a7.619,7.619,0,1,0,7.619,7.619Z" transform="translate(1580.381 324.881)"/>
</svg>
