<svg xmlns="http://www.w3.org/2000/svg" viewBox="421.663 552.781 21.882 21.361"><defs><style>.a{fill:#fff;}</style></defs><g transform="translate(421.663 552.781)"><g transform="translate(4.481 7.294)"><ellipse class="a" cx="1.355" cy="1.355" rx="1.355" ry="1.355"/><ellipse class="a" cx="1.355" cy="1.355" rx="1.355" ry="1.355" transform="translate(5.002)"/><ellipse class="a" cx="1.355" cy="1.355" rx="1.355" ry="1.355" transform="translate(10.212)"/></g><path class="a" d="M6.877,21.361a2.452,2.452,0,0,1-.834-.208,1.549,1.549,0,0,1-.834-1.459v-1.98H4.168A4.18,4.18,0,0,1,0,13.546V4.168A4.18,4.18,0,0,1,4.168,0H17.714a4.18,4.18,0,0,1,4.168,4.168v9.378a4.18,4.18,0,0,1-4.168,4.168H13.859L7.711,21.153A1.123,1.123,0,0,1,6.877,21.361Zm-.208-2.084ZM4.168,2.084A2.09,2.09,0,0,0,2.084,4.168v9.378A2.09,2.09,0,0,0,4.168,15.63H6.46a.9.9,0,0,1,.834.834v1.771a.352.352,0,0,0,.521.313l4.9-2.709a1.76,1.76,0,0,1,1.042-.313h3.96A2.09,2.09,0,0,0,19.8,13.442V4.168a2.09,2.09,0,0,0-2.084-2.084Z"/></g></svg>