<svg xmlns="http://www.w3.org/2000/svg" viewBox="423.941 609.574 16.334 25.27"><defs><style>.a{fill:#fff;}</style></defs><path class="a" d="M2.18,7.819v5.163a5.744,5.744,0,0,0,5.735,5.735h.5a5.744,5.744,0,0,0,5.735-5.735V7.819h2.18v5.163a7.937,7.937,0,0,1-7.07,7.874v2.234h1.376v2.18H5.694v-2.18H7.07V20.856A7.937,7.937,0,0,1,0,12.982V7.819ZM3.8,12.438V4.359a4.359,4.359,0,1,1,8.719,0v8.078a4.359,4.359,0,1,1-8.719,0Zm2.18,0a2.18,2.18,0,1,0,4.359,0V4.359a2.18,2.18,0,1,0-4.359,0Zm0,0" transform="translate(423.941 609.574)"/></svg>