<svg xmlns="http://www.w3.org/2000/svg" viewBox="5704.667 4899.667 12.667 12.667">
  <defs>
    <style>
      .cls-1 {
        fill: #313761;
      }
    </style>
  </defs>
  <g id="Group_505" data-name="Group 505" transform="translate(5509 4826)">
    <ellipse id="Ellipse_78" data-name="Ellipse 78" class="cls-1" cx="0.905" cy="0.905" rx="0.905" ry="0.905" transform="translate(195.667 73.667)"/>
    <ellipse id="Ellipse_83" data-name="Ellipse 83" class="cls-1" cx="0.905" cy="0.905" rx="0.905" ry="0.905" transform="translate(199.286 73.667)"/>
    <ellipse id="Ellipse_86" data-name="Ellipse 86" class="cls-1" cx="0.905" cy="0.905" rx="0.905" ry="0.905" transform="translate(202.905 77.286)"/>
    <ellipse id="Ellipse_79" data-name="Ellipse 79" class="cls-1" cx="0.905" cy="0.905" rx="0.905" ry="0.905" transform="translate(195.667 77.286)"/>
    <ellipse id="Ellipse_82" data-name="Ellipse 82" class="cls-1" cx="0.905" cy="0.905" rx="0.905" ry="0.905" transform="translate(199.286 77.286)"/>
    <ellipse id="Ellipse_87" data-name="Ellipse 87" class="cls-1" cx="0.905" cy="0.905" rx="0.905" ry="0.905" transform="translate(202.905 80.905)"/>
    <ellipse id="Ellipse_88" data-name="Ellipse 88" class="cls-1" cx="0.905" cy="0.905" rx="0.905" ry="0.905" transform="translate(206.524 79.095)"/>
    <ellipse id="Ellipse_80" data-name="Ellipse 80" class="cls-1" cx="0.905" cy="0.905" rx="0.905" ry="0.905" transform="translate(195.667 80.905)"/>
    <ellipse id="Ellipse_85" data-name="Ellipse 85" class="cls-1" cx="0.905" cy="0.905" rx="0.905" ry="0.905" transform="translate(195.667 84.524)"/>
    <ellipse id="Ellipse_81" data-name="Ellipse 81" class="cls-1" cx="0.905" cy="0.905" rx="0.905" ry="0.905" transform="translate(199.286 80.905)"/>
    <ellipse id="Ellipse_84" data-name="Ellipse 84" class="cls-1" cx="0.905" cy="0.905" rx="0.905" ry="0.905" transform="translate(199.286 84.524)"/>
  </g>
</svg>
