<svg xmlns="http://www.w3.org/2000/svg" viewBox="416.773 487.176 32.234 27.258"><defs><style>.a{fill:#fff;}</style></defs><g transform="matrix(0.951, -0.309, 0.309, 0.951, 415.968, 495.902)"><path class="a" d="M14.8.521,1.667,4.168,0,4.272v6.669H1.667l.834.208V14.8a.963.963,0,0,0,.625,1.042l3.23,1.042h.208a.648.648,0,0,0,.625-.417l1.98-3.439,5.523,1.563,1.667.521V0ZM6.252,14.692l-2.084-.625v-2.4l3.334.938ZM1.667,8.857v-2.5L14.8,2.605v9.9Z" transform="translate(0 2.605)"/><g transform="translate(18.86 0)"><path class="a" d="M.1,0H0V1.98H.1A8.041,8.041,0,0,1,7.4,10,8.041,8.041,0,0,1,.1,18.027H0v1.98H.1A10.088,10.088,0,0,0,9.378,10,10.088,10.088,0,0,0,.1,0Z" transform="translate(0 0)"/><path class="a" d="M5,5.627A5.712,5.712,0,0,0,.1,0H0V1.876H.1A3.8,3.8,0,0,1,3.126,5.627,3.887,3.887,0,0,1,.1,9.378H0v1.876H.1A5.712,5.712,0,0,0,5,5.627Z" transform="translate(0 4.376)"/></g></g></svg>