<svg xmlns="http://www.w3.org/2000/svg" viewBox="420.524 425.719 23.966 23.966"><defs><style>.a{fill:#fff;}</style></defs><g transform="translate(420.524 425.719)"><path class="a" d="M9.252,12.5A6.252,6.252,0,1,1,15.5,6.252,6.27,6.27,0,0,1,9.252,12.5Zm0-10.42A4.168,4.168,0,1,0,13.42,6.252,4.18,4.18,0,0,0,9.252,2.084Z" transform="translate(0.126 0)"/><path class="a" d="M14.8,12.771A9.115,9.115,0,0,0,9.378,11,9.339,9.339,0,0,0,0,20.378H2.084a7.249,7.249,0,0,1,7.294-7.294,6.947,6.947,0,0,1,4.064,1.25A6.659,6.659,0,0,1,14.8,12.771Z" transform="translate(0 0.462)"/><g transform="translate(13.65 13.65)"><path class="a" d="M18.31,21.536h-.1a1.773,1.773,0,0,1-.729-.1l-.729,1.563L15.08,22.37l.834-1.667c-.208-.1-.417-.417-.625-.625l-1.667.521L13.1,18.931l1.771-.625a2.223,2.223,0,0,1,0-.834l-1.563-.729.729-1.563,1.667.834c.1-.208.417-.417.625-.625l-.521-1.667,1.667-.521.625,1.771h.1a1.773,1.773,0,0,1,.729.1l.729-1.563,1.563.729-.834,1.667c.208.1.417.417.625.625l1.667-.521.521,1.667-1.771.625a2.223,2.223,0,0,1,0,.834L23,19.869l-.729,1.459L20.6,20.494c-.1.208-.417.417-.625.625l.521,1.667-1.667.625Zm-.1-4.9a1.663,1.663,0,0,0-1.459.834,1.593,1.593,0,0,0,.729,2.188,1.932,1.932,0,0,0,.729.208,1.663,1.663,0,0,0,1.459-.834,1.593,1.593,0,0,0-.729-2.188A.879.879,0,0,0,18.206,16.639Z" transform="translate(-13.1 -13.096)"/><path class="a" d="M17.472,13.2l.521,1.667H18.2a1.773,1.773,0,0,1,.729.1l.834-1.563,1.459.729-.834,1.563a4.532,4.532,0,0,1,.625.729l1.667-.521.521,1.563L21.536,18a2.885,2.885,0,0,1-.1.938l1.563.834-.729,1.563L20.7,20.5a4.532,4.532,0,0,1-.729.625l.521,1.667-1.563.521-.521-1.667H18.2a1.773,1.773,0,0,1-.729-.1L16.639,23.1l-1.459-.729.834-1.563a4.532,4.532,0,0,1-.625-.729l-1.667.521L13.2,19.039l1.667-.521a2.885,2.885,0,0,1,.1-.938l-1.563-.834.729-1.459,1.563.834a4.532,4.532,0,0,1,.729-.625l-.521-1.667,1.563-.625m.729,6.669a1.572,1.572,0,0,0,1.459-.938,1.711,1.711,0,0,0-.729-2.292,1.932,1.932,0,0,0-.729-.208,1.572,1.572,0,0,0-1.459.938,1.711,1.711,0,0,0,.729,2.292.879.879,0,0,0,.729.208M17.576,13.1h0l-1.667.521h-.1v.1l.521,1.667a2.763,2.763,0,0,0-.625.521l-1.459-.834h-.1v.1l-.729,1.459v.1h.1l1.563.834a2.031,2.031,0,0,0-.1.834l-1.667.521h-.1v.1l.521,1.563v.1h.1l1.667-.521a2.763,2.763,0,0,0,.521.625l-.938,1.459v.1h.1l1.459.729h.1V23l.834-1.563c.208,0,.417.1.729.1h.1l.521,1.667v.1h.1l1.563-.521h.1v-.1l-.521-1.667a2.763,2.763,0,0,0,.625-.521l1.563.834h.1v-.1l.729-1.459v-.1h-.1l-1.563-.834a2.031,2.031,0,0,0,.1-.834l1.667-.521h.1v-.1l-.521-1.563v-.1h-.1l-1.667.521A2.763,2.763,0,0,0,20.6,15.6l.834-1.563v-.1h-.1L19.869,13.2h-.1v.1l-.834,1.563c-.208,0-.417-.1-.729-.1h-.1L17.576,13.1Zm.625,6.669a1.932,1.932,0,0,1-.729-.208,1.551,1.551,0,0,1-.625-2.084,1.626,1.626,0,0,1,1.355-.834,1.932,1.932,0,0,1,.729.208,1.551,1.551,0,0,1,.625,2.084,1.4,1.4,0,0,1-1.355.834Z" transform="translate(-13.096 -13.1)"/></g></g></svg>