<svg xmlns="http://www.w3.org/2000/svg" viewBox="0 0 22.96 22.99"><defs><style>.cls-1{fill:#ffffff;}</style></defs><title>Asset 1</title><g id="Layer_2" data-name="Layer 2"><g id="icons"><path class="cls-1" d="M9,12a6,6,0,1,1,6-6A6,6,0,0,1,9,12ZM9,2a4,4,0,1,0,4,4A4,4,0,0,0,9,2Z"/><path class="cls-1" d="M14.22,12.69A8.89,8.89,0,0,0,9,11a9,9,0,0,0-9,9H2a7,7,0,0,1,7-7,6.89,6.89,0,0,1,3.86,1.17A11.93,11.93,0,0,1,14.22,12.69Z"/><path class="cls-1" d="M18.11,21.23l-.12,0a3,3,0,0,1-.73-.08l-.74,1.5L15,22l.78-1.59a2,2,0,0,1-.56-.63l-1.59.53-.53-1.56,1.67-.57a2.24,2.24,0,0,1,0-.85l-1.49-.74.72-1.49,1.59.78a2,2,0,0,1,.63-.56l-.53-1.59,1.56-.54.58,1.68.11,0a3.55,3.55,0,0,1,.73.08l.74-1.49L21,14.1l-.78,1.59a2.06,2.06,0,0,1,.57.63l1.58-.53.54,1.56-1.67.58a2,2,0,0,1-.05.84l1.5.74L21.93,21l-1.59-.78a2.06,2.06,0,0,1-.63.57l.54,1.58-1.61.55ZM18,16.48a1.55,1.55,0,0,0-.73,2.93,1.62,1.62,0,0,0,.72.17,1.55,1.55,0,0,0,.72-2.92A1.5,1.5,0,0,0,18,16.48Z"/><path class="cls-1" d="M17.34,13.2l.51,1.64H18a3.53,3.53,0,0,1,.72.08l.8-1.52,1.42.75-.8,1.52a3,3,0,0,1,.56.68l1.65-.51.47,1.53-1.64.51a2.92,2.92,0,0,1-.08.88l1.52.8L21.89,21l-1.52-.8a3,3,0,0,1-.68.56l.51,1.64-1.53.48-.51-1.64H18a2.81,2.81,0,0,1-.71-.08l-.8,1.52-1.42-.74.8-1.52a3.32,3.32,0,0,1-.57-.68l-1.64.51-.48-1.53,1.64-.52a3.32,3.32,0,0,1,.08-.88l-1.52-.79.75-1.42,1.52.79a3,3,0,0,1,.68-.56l-.51-1.64,1.53-.48M18,19.63a1.59,1.59,0,0,0,1.42-.85,1.61,1.61,0,0,0-.67-2.17,1.65,1.65,0,0,0-.74-.18,1.6,1.6,0,0,0-.75,3,1.5,1.5,0,0,0,.74.18m-.6-6.55-.09,0-1.53.47-.1,0,0,.1.49,1.57a3.37,3.37,0,0,0-.58.48L14.16,15,14.07,15,14,15l-.75,1.42,0,.09.09,0,1.45.77a3.13,3.13,0,0,0-.07.75l-1.57.49-.09,0,0,.1.47,1.53,0,.09.1,0,1.57-.49a3.44,3.44,0,0,0,.48.59L15,21.87l-.05.09L15,22l1.42.74.09.05.05-.09.76-1.45a3.68,3.68,0,0,0,.66.06h.09l.49,1.57,0,.1.1,0,1.53-.48.09,0,0-.1-.48-1.56a3.86,3.86,0,0,0,.58-.49l1.45.76.09.05L22,21l.74-1.42.05-.09-.09,0-1.45-.76a3.21,3.21,0,0,0,.06-.76l1.57-.49.1,0,0-.09-.48-1.53,0-.1-.09,0-1.57.49a3.07,3.07,0,0,0-.49-.59L21,14.19l0-.09-.09,0-1.42-.75-.08,0,0,.08-.76,1.46a3,3,0,0,0-.67-.07h-.09l-.49-1.57,0-.09Zm.6,6.45a1.57,1.57,0,0,1-.7-.17,1.5,1.5,0,1,1,2.14-1.78,1.51,1.51,0,0,1-1.44,2Z"/></g></g></svg>