<svg xmlns="http://www.w3.org/2000/svg" viewBox="4860 339 14.553 11.668">
  <defs>
    <style>
      .cls-1 {
        fill: #cb9e6e;
      }
    </style>
  </defs>
  <g id="Group_84" data-name="Group 84" transform="translate(4860 339.014)">
    <path id="Path_120" data-name="Path 120" class="cls-1" d="M12.018,7.025V8.46H9.866A1.38,1.38,0,0,0,8.49,9.775h0l-.06,1.734H1.375a.257.257,0,0,1-.239-.239V3.975a.257.257,0,0,1,.239-.239H8.012V2.6H1.375A1.353,1.353,0,0,0,0,3.975V11.33A1.391,1.391,0,0,0,1.375,12.7H9.029a.426.426,0,0,0,.359-.179l3.588-3.049a.543.543,0,0,0,.179-.419V7.025ZM9.626,10.791l.06-1.016a.257.257,0,0,1,.239-.239h1.256Z" transform="translate(0 -1.051)"/>
    <path id="Path_121" data-name="Path 121" class="cls-1" d="M21,1.669,19.15.114a.488.488,0,0,0-.718.06.492.492,0,0,0,.06.718l.957.837H16.878a.514.514,0,0,0-.478.478.514.514,0,0,0,.478.478h2.571l-.777.837a.546.546,0,0,0,0,.718.546.546,0,0,0,.718,0L21,2.386a.439.439,0,0,0,.12-.359h0C21.183,1.908,21.124,1.788,21,1.669Z" transform="translate(-6.594)"/>
  </g>
</svg>
