<svg xmlns="http://www.w3.org/2000/svg" xmlns:xlink="http://www.w3.org/1999/xlink" viewBox="1499.324 110 56.056 14.972"><defs><style>.a{fill:url(#a);}</style><radialGradient id="a" cx="0.5" cy="0.5" r="0.5" gradientUnits="objectBoundingBox"><stop offset="0" stop-color="#f07"/><stop offset="1" stop-color="#0f55f6"/></radialGradient></defs><path class="a" d="M54.464,0a1.585,1.585,0,0,0-1.591,1.591.748.748,0,0,0,.059.354C50.869,3.419,46.271,6.6,41.556,9.313,35.956,12.5,32.3,10.433,27.7,7.84,24.462,6.012,20.807,3.89,15.8,3.478,5.541,2.594.059,14.382,0,14.5l1.061.472C1.12,14.854,6.248,3.831,15.738,4.6c4.716.413,8.311,2.417,11.435,4.185,4.716,2.711,8.783,5.01,14.972,1.474A135.569,135.569,0,0,0,53.639,2.829a1.353,1.353,0,0,0,.825.236,1.585,1.585,0,0,0,1.591-1.591A1.489,1.489,0,0,0,54.464,0Z" transform="translate(1499.324 110)"/></svg>