<svg xmlns="http://www.w3.org/2000/svg" viewBox="421.663 371.127 22.827 22.827">
  <defs>
    <style>
      .cls-1 {
        fill: none;
      }

      .cls-2 {
        fill: #fff;
      }
    </style>
  </defs>
  <g id="Group_6" data-name="Group 6" transform="translate(421.663 371.127)">
    <rect id="Rectangle_5" data-name="Rectangle 5" class="cls-1" width="22.827" height="22.827"/>
    <path id="Path_10" data-name="Path 10" class="cls-2" d="M20.072,2.951H16.933A1.841,1.841,0,0,0,15.316,2H7.707a1.841,1.841,0,0,0-1.617.951H2.951A.9.9,0,0,0,2,3.9V6.756A2.894,2.894,0,0,0,3.046,9.038l3.995,3.139A6.084,6.084,0,0,0,10.56,14.27v2h-1.9a.9.9,0,0,0-.951.951v1.9H6.756v1.9h9.511v-1.9h-.951v-1.9a.9.9,0,0,0-.951-.951h-1.9v-2a6.084,6.084,0,0,0,3.519-2.093l3.995-3.139a2.894,2.894,0,0,0,1.046-2.283V3.9A.9.9,0,0,0,20.072,2.951ZM13.414,19.121h-3.8v-.951h3.8ZM4.283,7.517a.865.865,0,0,1-.38-.761v-1.9H5.8v3.9Zm7.229,4.946a3.816,3.816,0,0,1-3.8-3.8V3.9h7.609V8.658A3.816,3.816,0,0,1,11.511,12.463ZM19.12,6.756a.865.865,0,0,1-.38.761L17.218,8.753v-3.9h1.9Z" transform="translate(-0.098 -0.098)"/>
    <path id="Path_11" data-name="Path 11" class="cls-2" d="M11.892,5.9l.666,1.332,1.427.19-1.046.951.19,1.427-1.236-.666L10.656,9.8l.19-1.427L9.8,7.422l1.427-.19Z" transform="translate(-0.479 -0.288)"/>
  </g>
</svg>
